<?xml version="1.0" encoding="UTF-8"?>
<svg version="1.1" xmlns="http://www.w3.org/2000/svg" width="1024" height="1024">
<path d="M0 0 C337.92 0 675.84 0 1024 0 C1024 337.92 1024 675.84 1024 1024 C686.08 1024 348.16 1024 0 1024 C0 686.08 0 348.16 0 0 Z " fill="#6EB6FE" transform="translate(0,0)"/>
<path d="M0 0 C337.92 0 675.84 0 1024 0 C1024 337.92 1024 675.84 1024 1024 C686.08 1024 348.16 1024 0 1024 C0 686.08 0 348.16 0 0 Z M113.19921875 135.3359375 C94.17681693 158.37906013 83.81291317 186.56345454 83.86857224 216.43225765 C83.8665196 217.46292647 83.86446697 218.49359528 83.86235213 219.55549648 C83.85669192 223.01356712 83.85813818 226.4715978 83.85955811 229.92967224 C83.85697391 232.43233999 83.85396059 234.93500734 83.8505547 237.43767411 C83.84333368 243.59740279 83.84078239 249.757119 83.84022565 255.91685142 C83.83931056 263.29657197 83.8326387 270.67628453 83.82587883 278.05600164 C83.809831 295.89156274 83.80391684 313.72712297 83.79913008 331.56268999 C83.79679282 340.00331197 83.79319001 348.44393328 83.7894347 356.88455473 C83.77660001 385.78847319 83.76588096 414.69239128 83.7624321 443.59631252 C83.76221047 445.41020153 83.76198868 447.22409054 83.76176675 449.03797955 C83.76154611 450.85620255 83.76132563 452.67442554 83.7611053 454.49264854 C83.76066275 458.14019994 83.76021563 461.78775134 83.75976562 465.43530273 C83.75965623 466.3396811 83.75954684 467.24405946 83.75943414 468.17584323 C83.75580445 497.49266412 83.73988729 526.80946027 83.71657526 556.12627169 C83.69196267 587.13545633 83.67825859 618.14462684 83.67706418 649.15382153 C83.67689273 652.55985932 83.67667731 655.9658971 83.67642975 659.37193489 C83.67637398 660.21057219 83.67631821 661.04920949 83.67626075 661.91326004 C83.67511153 675.39205471 83.66410046 688.87082394 83.64954269 702.34961003 C83.63515498 715.90568742 83.63195353 729.46173229 83.63998267 743.01781522 C83.64442827 751.06384824 83.64062133 759.10977605 83.62474416 767.15579517 C83.61380019 773.1751665 83.61866872 779.19441869 83.62951604 785.2137946 C83.63147069 787.64049203 83.62840541 790.06720009 83.61967167 792.49388259 C83.56257253 809.43853208 84.75386165 825.10233554 89.875 841.375 C90.13619629 842.22022217 90.39739258 843.06544434 90.66650391 843.9362793 C92.65219441 850.21422776 94.9709044 856.14601749 98 862 C98.56203125 863.155 99.1240625 864.31 99.703125 865.5 C114.08126013 894.42119152 140.04792943 916.57388959 170.52490234 926.984375 C192.43372336 934.12047594 214.03352748 935.30030879 236.93325806 935.26742554 C239.42306924 935.27116832 241.91287925 935.27577233 244.40268743 935.28115618 C249.78762303 935.29079227 255.17250937 935.29431179 260.55744934 935.29224396 C268.56574442 935.28917636 276.57400018 935.29755653 284.58228757 935.30799321 C299.72204909 935.32727435 314.86179699 935.3329592 330.00156935 935.33410732 C341.69811456 935.33502851 353.39465448 935.3391561 365.09119797 935.34550858 C368.46526857 935.34730382 371.83933917 935.34908345 375.21340978 935.35085833 C376.05235135 935.35130043 376.89129292 935.35174252 377.75565697 935.35219802 C401.33388263 935.36449587 424.91210646 935.37240021 448.49033546 935.37151146 C449.37818953 935.3714803 450.2660436 935.37144914 451.18080233 935.37141704 C455.68021212 935.37125084 460.1796219 935.37105276 464.67903168 935.37084763 C466.01928874 935.37078779 466.01928874 935.37078779 467.3866217 935.37072675 C469.19350334 935.37064587 471.00038497 935.37056228 472.80726661 935.37047596 C500.91205911 935.36925078 529.01680334 935.38426206 557.12158203 935.41162109 C588.7404057 935.44238868 620.35919766 935.45955082 651.97803724 935.45769465 C655.35399397 935.4575454 658.7299507 935.45744798 662.10590744 935.45738602 C662.93707517 935.45736271 663.7682429 935.4573394 664.62459754 935.45731538 C677.95827274 935.45725402 691.29190578 935.46998603 704.62556847 935.48725055 C718.04165057 935.50426173 731.45767144 935.50613809 744.87375839 935.4930319 C752.82730683 935.48567955 760.78066838 935.48918855 768.73419675 935.50891658 C774.69675101 935.52244711 780.65908915 935.51470568 786.62164633 935.49917014 C789.01586794 935.49611897 791.4101102 935.4996605 793.80430742 935.51089029 C834.8912119 935.69066786 872.28273983 925.56251207 902.48144531 896.578125 C920.9355088 878.26243554 932.90200217 853.71718463 937.6875 828.3125 C938.00557617 826.69891602 938.00557617 826.69891602 938.33007812 825.05273438 C940.11217586 815.87240125 941.14934234 807.12730876 941.12863445 797.78359222 C941.13038749 796.77626104 941.13214053 795.76892987 941.13394669 794.7310735 C941.13860215 791.35239948 941.13614233 787.97376858 941.13371277 784.59509277 C941.13558098 782.14945964 941.13788172 779.70382681 941.14057809 777.25819445 C941.14542241 771.93902367 941.14715049 766.61986542 941.14612198 761.30069351 C941.14459621 753.39045243 941.14876072 745.4802214 941.1539966 737.56998227 C941.16366676 722.61834623 941.16648074 707.66671363 941.16705366 692.71507484 C941.16751331 681.16601142 941.16957219 669.61694934 941.17275429 658.06788635 C941.17365185 654.74273825 941.17454166 651.41759014 941.17542917 648.09244204 C941.17565021 647.2657768 941.17587126 646.43911156 941.17609901 645.58739586 C941.1822533 622.33426247 941.18619957 599.08112954 941.18575573 575.8279953 C941.18574015 574.95130793 941.18572457 574.07462056 941.18570852 573.1713669 C941.18562541 568.72803064 941.18552637 564.28469438 941.18542381 559.84135813 C941.18540387 558.95890984 941.18538392 558.07646155 941.18536337 557.16727241 C941.18532294 555.38274553 941.18528114 553.59821865 941.18523798 551.81369177 C941.18462546 524.05970855 941.19212759 496.30573754 941.20581055 468.55175781 C941.22118056 437.36304674 941.22977619 406.1743437 941.22884732 374.9856286 C941.2287727 371.65796566 941.22872399 368.33030272 941.22869301 365.00263977 C941.22868135 364.18329916 941.2286697 363.36395854 941.22865769 362.51978942 C941.22862695 349.3495086 941.23500574 336.17923841 941.24362527 323.00896075 C941.25211397 309.76432256 941.25308221 296.51969988 941.24651595 283.27506047 C941.24282818 275.41324763 941.24462947 267.55148199 941.25445829 259.68967417 C941.26118684 253.8092229 941.2573838 247.92880825 941.24958507 242.04835731 C941.2480508 239.67686012 941.24986347 237.30535779 941.25544515 234.93386668 C941.34656671 193.45715367 931.88097296 158.70956342 903 128 C902.46246094 127.39800781 901.92492187 126.79601562 901.37109375 126.17578125 C878.75737307 101.86178082 842.35787363 90.71330488 810.08723348 88.83001299 C802.64319721 88.56091092 795.19843384 88.5917117 787.75067139 88.61231995 C785.26310749 88.60813817 782.7755455 88.60265607 780.28798699 88.59600013 C774.91720837 88.58462192 769.54654631 88.58237774 764.1757679 88.58855057 C756.18854124 88.59770566 748.20139437 88.58955868 740.21417378 88.57825933 C725.9413013 88.55866328 711.66846527 88.55623142 697.39558255 88.56145453 C684.90214704 88.5660238 672.40872589 88.56539749 659.91529083 88.55961418 C658.23500854 88.55885729 656.55472625 88.55810131 654.87444396 88.55734624 C652.3419473 88.55620096 649.80945063 88.55505107 647.27695397 88.55388699 C623.75337954 88.54319278 600.22980987 88.53844562 576.70623398 88.54635715 C575.82078604 88.54665433 574.9353381 88.5469515 574.0230584 88.54725768 C566.83406907 88.54970625 559.6450798 88.55231802 552.45609053 88.55494181 C524.42464306 88.56504125 496.39325552 88.5566902 468.36181641 88.53344727 C436.81620508 88.50733235 405.27062982 88.49453803 373.7250073 88.50163502 C370.35666228 88.502351 366.98831726 88.5030254 363.61997223 88.50367546 C362.79069457 88.50384527 361.96141692 88.50401508 361.10700963 88.50419003 C348.62950015 88.50648583 336.15202433 88.49855051 323.6745224 88.48538399 C309.47211263 88.47042337 295.26978136 88.46969535 281.06737319 88.4874549 C273.13624116 88.49696621 265.20529259 88.49568988 257.2741731 88.47822021 C251.32667012 88.46638295 245.37931645 88.4758284 239.43182293 88.49304258 C237.04507759 88.49677867 234.65830968 88.49395076 232.2715846 88.48343093 C186.75389788 88.29726661 143.94888388 100.17931553 113.19921875 135.3359375 Z " fill="#FBFBFE" transform="translate(0,0)"/>
<path d="M0 0 C1.35619904 0.0037369 2.7124008 0.00658067 4.06860352 0.00857544 C7.61301315 0.0161587 11.15725508 0.03576055 14.70159912 0.0579834 C18.32838677 0.07855716 21.95520189 0.08760165 25.58203125 0.09765625 C32.6797555 0.11901229 39.77736672 0.15308292 46.875 0.1953125 C46.8843457 1.1426123 46.89369141 2.08991211 46.90332031 3.06591797 C46.94768795 6.62620349 47.00945614 10.18534803 47.08251953 13.74511719 C47.11051075 15.27723416 47.13183246 16.80948968 47.14599609 18.34179688 C47.24587573 28.54283733 47.58758009 37.71694261 54.125 46.0703125 C60.42124383 50.93559182 65.82416884 52.79302285 73.74215698 52.70324707 C74.59948272 52.70948703 75.45680845 52.715727 76.34011376 52.72215605 C79.19431284 52.73802824 82.04765103 52.72550446 84.90185547 52.71289062 C86.95575455 52.71831439 89.00964975 52.72543847 91.0635376 52.73413086 C96.62977084 52.75233906 102.19570693 52.74530628 107.76194525 52.73261452 C113.59489574 52.72247122 119.42782119 52.73188415 125.26077271 52.73815918 C135.05752111 52.74543285 144.85414883 52.73585638 154.65087891 52.71679688 C165.96397488 52.69504091 177.27678234 52.70207149 188.58987129 52.7241025 C198.31412496 52.74227893 208.03829197 52.74480346 217.76255715 52.73434782 C223.56544541 52.72812369 229.36819826 52.72724734 235.17107773 52.74049377 C240.62951089 52.75208379 246.08757377 52.74396878 251.5459671 52.72091675 C253.54456341 52.71564598 255.5431911 52.71711533 257.54177475 52.72596741 C273.16252683 53.23776155 273.16252683 53.23776155 286.75864983 46.53327179 C295.03248426 38.07781549 294.39970614 27.21610572 294.5625 16.1953125 C294.5957203 14.64189907 294.63021422 13.08851233 294.66601562 11.53515625 C294.75038248 7.75535657 294.81744329 3.9756116 294.875 0.1953125 C302.29113392 0.07828772 309.70706152 -0.00996475 317.12393951 -0.06374836 C320.56977983 -0.08959181 324.01497823 -0.12451021 327.46044922 -0.18188477 C364.02743357 -0.77458127 364.02743357 -0.77458127 378.875 11.1953125 C379.69613281 11.8140625 380.51726562 12.4328125 381.36328125 13.0703125 C391.17553589 21.37181565 396.38503763 33.65432878 397.875 46.1953125 C397.9589044 48.79575285 398.0021573 51.36744095 397.98852539 53.96655273 C397.98867142 54.70884628 397.98881744 55.45113983 397.9889679 56.21592712 C397.98827674 58.64528426 397.98052203 61.07456267 397.97265625 63.50390625 C397.97078923 65.19783995 397.96936667 66.89177419 397.96836853 68.58570862 C397.96456568 73.02604688 397.95475462 77.466352 397.94366455 81.90667725 C397.93340227 86.44494173 397.92886062 90.98321161 397.92382812 95.52148438 C397.9131302 104.41277491 397.8960808 113.30404094 397.875 122.1953125 C397.00399658 122.51781982 396.13299316 122.84032715 395.2355957 123.17260742 C393.50442505 123.82386597 393.50442505 123.82386597 391.73828125 124.48828125 C390.59915283 124.91391357 389.46002441 125.3395459 388.28637695 125.77807617 C372.88517257 132.17641521 362.45061468 144.29019722 355.48828125 159.15625 C348.96444401 176.08427377 349.31863847 194.62221237 355.6875 211.5703125 C362.89015453 227.79667007 373.80188233 238.75405432 389.875 246.1953125 C389.875 246.8553125 389.875 247.5153125 389.875 248.1953125 C389.26205078 248.47616699 388.64910156 248.75702148 388.01757812 249.04638672 C376.24264814 254.4736871 364.88121525 260.04576545 354.0546875 267.19921875 C351.34639284 268.89938899 348.88132655 270.14593437 345.875 271.1953125 C345.78863281 270.14214844 345.70226562 269.08898437 345.61328125 268.00390625 C343.41246347 244.29597732 334.13566798 225.46608596 316.125 209.8828125 C299.19944276 196.98714984 276.87783392 192.97374881 256.078125 195.69140625 C235.66851018 199.70529716 219.02915806 210.11093299 206.91015625 227.0390625 C195.30625665 245.03512944 192.08503648 265.52652793 196.375 286.3203125 C200.94191563 305.98579265 212.81782436 323.68925188 229.91723633 334.51879883 C234.46205867 337.31716192 239.0786358 339.85457189 243.875 342.1953125 C241.51725012 344.55306238 239.85930679 345.00047816 236.6953125 346.0078125 C235.63078857 346.35585938 234.56626465 346.70390625 233.46948242 347.0625 C231.75208862 347.62324219 231.75208862 347.62324219 230 348.1953125 C196.42914584 359.51273328 164.40361984 379.7443991 148.10351562 412.31835938 C144.08366099 420.72840702 140.94879758 429.085416 138.875 438.1953125 C138.70282959 438.92500244 138.53065918 439.65469238 138.35327148 440.40649414 C137.39124133 446.01612686 137.52953074 451.75983546 137.4699707 457.43969727 C137.44849589 458.97280549 137.41451843 460.50579465 137.36743164 462.03833008 C137.03033055 473.14587086 137.92952151 482.25481169 145.5234375 491.11962891 C158.60601113 503.9729114 180.87966091 506.93605774 198.15380859 509.75 C200.6748676 510.1625616 203.19075307 510.59846702 205.70703125 511.0390625 C254.15044514 519.2427434 306.14246106 517.24683017 354.38476562 508.60449219 C358.20167261 507.97732198 362.0266822 507.58014428 365.875 507.1953125 C366.52205422 527.22661808 366.23865407 545.68890577 351.95703125 561.27734375 C339.39602445 572.84855264 324.79867824 575.50575056 308.3276062 575.45600891 C306.96521805 575.45903361 305.6028316 575.46292468 304.24044812 575.46760148 C300.51579098 575.47784973 296.79123045 575.47570776 293.06656551 575.47142088 C289.04184885 575.46894779 285.0171551 575.47797521 280.9924469 575.48545837 C273.11386856 575.49819251 265.23532432 575.50000056 257.35673742 575.49765811 C250.94880056 575.49587287 244.54087402 575.49762902 238.13293839 575.50188255 C237.21984407 575.50247774 236.30674975 575.50307293 235.36598591 575.50368616 C233.51079868 575.50489796 231.65561146 575.50611209 229.80042423 575.50732853 C212.41002046 575.51819973 195.01963609 575.51604394 177.62923123 575.50994369 C161.74195708 575.50477844 145.85474432 575.51602037 129.96748231 575.53504191 C113.63504993 575.55444568 97.30264655 575.56267163 80.97020257 575.55891865 C71.80868582 575.55701001 62.64722127 575.55946101 53.48571396 575.57363319 C45.68368194 575.58558059 37.88173424 575.5869146 30.07970099 575.57484303 C26.10415226 575.56897699 22.12875747 575.56779123 18.15321922 575.57984543 C14.50366148 575.59078188 10.85438475 575.58751002 7.20483972 575.57358374 C5.28074126 575.56972759 3.35662995 575.58042036 1.43256176 575.59188062 C-16.22664209 575.48378606 -30.59640514 571.67579901 -43.41796875 559.09765625 C-53.03133898 548.79068067 -56.28592429 536.65511539 -56.25922108 522.82241631 C-56.26157331 521.99009692 -56.26392554 521.15777753 -56.26634905 520.30023634 C-56.27301806 517.50490313 -56.27258146 514.70961662 -56.27217102 511.91427612 C-56.27547094 509.89237241 -56.27919678 507.87046935 -56.2833125 505.84856713 C-56.29332582 500.28711686 -56.29704821 494.72567738 -56.29970181 489.16421938 C-56.30360676 483.16812463 -56.31318488 477.1720384 -56.32191467 471.1759491 C-56.34073844 457.37846167 -56.35093362 443.58097362 -56.35937535 429.78347702 C-56.36358405 422.96343516 -56.36880571 416.14339418 -56.37405988 409.32335305 C-56.39194793 385.97187706 -56.4069437 362.62040081 -56.41438007 339.26891899 C-56.41485483 337.80339611 -56.41533072 336.33787323 -56.41580774 334.87235034 C-56.41604411 334.14559424 -56.41628049 333.41883814 -56.41652403 332.67005912 C-56.41772521 328.98804722 -56.41894066 325.30603533 -56.42016602 321.62402344 C-56.42052624 320.52797143 -56.42052624 320.52797143 -56.42089374 319.40977697 C-56.42878646 295.71934021 -56.45221883 272.02895352 -56.48472196 248.33853862 C-56.51903356 223.28420175 -56.53873239 198.22989417 -56.54202431 173.17553341 C-56.54244185 170.42421348 -56.54292141 167.67289356 -56.54344749 164.92157364 C-56.54357069 164.24413483 -56.54369388 163.56669602 -56.5438208 162.86872877 C-56.54615105 151.97561748 -56.56180102 141.08256446 -56.58228934 130.18947392 C-56.60256303 119.23659552 -56.60768435 108.28377749 -56.59851871 97.33088236 C-56.59397091 91.399302 -56.59588851 85.46791049 -56.61528015 79.53635597 C-56.63288956 74.10301792 -56.63193186 68.6700068 -56.61638286 63.23666538 C-56.61400346 61.2743253 -56.61834749 59.31196271 -56.63021151 57.34965704 C-56.72385882 40.83331692 -54.33110294 27.47113867 -42.90625 14.71875 C-30.61643587 2.78805382 -16.4963937 -0.13169671 0 0 Z " fill="#FDFEFE" transform="translate(262.125,255.8046875)"/>
<path d="M0 0 C13.41427807 10.79157617 24.00183074 26.46639405 26.32470703 43.76318359 C27.90818349 63.42146446 24.34299827 81.42572405 11.25830078 96.83935547 C5.67078376 103.09066368 -0.4421645 107.70752461 -7.64404297 111.95849609 C-10.13233189 113.43992584 -12.40623979 114.97241123 -14.67529297 116.76318359 C-13.62470703 117.21048828 -12.57412109 117.65779297 -11.49169922 118.11865234 C-4.00273697 121.33444839 3.30045083 124.60336434 10.32470703 128.76318359 C9.69242188 130.39126953 9.69242188 130.39126953 9.04736328 132.05224609 C8.49368294 133.49744564 7.94031399 134.94276451 7.38720703 136.38818359 C7.10941406 137.10103516 6.83162109 137.81388672 6.54541016 138.54833984 C0.12090532 155.42234051 2.64048896 173.75584408 9.88720703 189.95068359 C13.5841471 196.90355819 18.76819855 202.27214207 24.32470703 207.76318359 C24.92154297 208.37033203 25.51837891 208.97748047 26.13330078 209.60302734 C31.36287283 214.51960755 37.9792319 217.53796466 44.32470703 220.76318359 C41.55127161 222.61214054 39.12507738 223.55091229 35.98144531 224.56347656 C16.20552003 230.97934727 -0.58735763 241.52928233 -15.67529297 255.76318359 C-16.31337891 256.34841797 -16.95146484 256.93365234 -17.60888672 257.53662109 C-30.97244565 270.21563246 -39.14849756 288.16503921 -43.67529297 305.76318359 C-43.85930664 306.40457275 -44.04332031 307.04596191 -44.23291016 307.70678711 C-46.45362884 316.1849052 -46.03156479 324.95543141 -46.06591797 333.65966797 C-46.2495962 343.79768604 -47.71505774 352.56490808 -54.86279297 360.17724609 C-92.70253149 393.2870173 -172.47832141 387.02459387 -218.92529297 384.07568359 C-289.94607097 378.72315576 -289.94607097 378.72315576 -308.67529297 359.76318359 C-315.9129291 350.68096634 -317.04833672 343.12650257 -317.04589844 331.73852539 C-317.0502073 329.49528265 -317.08636655 327.25411698 -317.12451172 325.01123047 C-317.23882004 310.32681264 -314.0375004 297.07570167 -307.67529297 283.76318359 C-307.18416016 282.72806641 -306.69302734 281.69294922 -306.18701172 280.62646484 C-294.02244533 256.55862346 -273.32230985 239.01532941 -249.67529297 226.76318359 C-248.72130615 226.2667334 -248.72130615 226.2667334 -247.74804688 225.76025391 C-236.69556949 220.09440212 -225.2990301 216.05940504 -213.44677734 212.39233398 C-211.67472991 211.90584736 -211.67472991 211.90584736 -210.67529297 210.76318359 C-211.39072266 210.44607422 -212.10615234 210.12896484 -212.84326172 209.80224609 C-233.06186457 200.33376714 -248.13974767 184.54367409 -255.86669922 163.42333984 C-262.39090558 141.95964647 -261.14333152 121.31274696 -250.88256836 101.3605957 C-247.77036023 95.61877547 -244.08618243 90.58647329 -239.67529297 85.76318359 C-239.12357422 85.13154297 -238.57185547 84.49990234 -238.00341797 83.84912109 C-226.09718099 70.97904588 -207.24875841 63.4999479 -189.93310547 62.56005859 C-167.6427632 62.13643146 -147.60115296 67.83713895 -131.05029297 83.43115234 C-130.26654297 84.20072266 -129.48279297 84.97029297 -128.67529297 85.76318359 C-127.97404297 86.43994141 -127.27279297 87.11669922 -126.55029297 87.81396484 C-114.89778318 99.89889199 -107.40821163 117.86251406 -107.61279297 134.63818359 C-107.62181641 135.60498047 -107.63083984 136.57177734 -107.64013672 137.56787109 C-107.65753906 138.65455078 -107.65753906 138.65455078 -107.67529297 139.76318359 C-106.57314453 139.07353516 -105.47099609 138.38388672 -104.33544922 137.67333984 C-96.53963613 132.83007945 -88.70616556 128.09535121 -80.61279297 123.76318359 C-79.94836182 123.40232666 -79.28393066 123.04146973 -78.59936523 122.66967773 C-73.7839707 120.13447002 -68.87609969 118.35025249 -63.67529297 116.76318359 C-63.67529297 116.10318359 -63.67529297 115.44318359 -63.67529297 114.76318359 C-64.47966797 114.55693359 -65.28404297 114.35068359 -66.11279297 114.13818359 C-80.94653172 108.41288092 -91.99375101 95.46121353 -98.64794922 81.36865234 C-105.67471861 63.54791019 -105.27726535 44.46815192 -98.55029297 26.63818359 C-95.57285189 19.93223521 -91.3689808 14.36378738 -86.67529297 8.76318359 C-86.05912109 8.02068359 -85.44294922 7.27818359 -84.80810547 6.51318359 C-64.0378068 -16.30740207 -24.25614266 -17.90755154 0 0 Z " fill="#1680EF" transform="translate(715.67529296875,387.23681640625)"/>
<path d="M0 0 C3.5416023 2.81029799 6.79623393 5.81274819 10 9 C10.62648438 9.59167969 11.25296875 10.18335938 11.8984375 10.79296875 C23.46106451 22.64335345 27.40124154 38.3028335 27.29101562 54.30688477 C27.00545007 71.00585914 21.17051074 86.72408038 9.359375 98.8203125 C-5.98924731 113 -5.98924731 113 -13 113 C-13 113.66 -13 114.32 -13 115 C-12.01902344 115.103125 -11.03804687 115.20625 -10.02734375 115.3125 C-5.62918004 115.94821952 -1.68326751 117.37464867 2.4375 119 C3.21955811 119.30832764 4.00161621 119.61665527 4.80737305 119.93432617 C18.25310056 125.40135979 29.78975063 132.84522654 41 142 C42.41732422 143.07314453 42.41732422 143.07314453 43.86328125 144.16796875 C44.56839844 144.77253906 45.27351562 145.37710938 46 146 C46 146.66 46 147.32 46 148 C46.84498047 148.32291016 46.84498047 148.32291016 47.70703125 148.65234375 C61.2932876 156.63745183 69.28428212 178.8195002 73.125 193.1953125 C75.40494802 203.10901505 77.63515648 215.83780314 72 225 C61.99609013 238.68956088 41.46327605 242.21085554 25.6875 244.6875 C22.13085636 245.18484621 18.56961299 245.60724314 15 246 C14.06671875 246.10441406 13.1334375 246.20882813 12.171875 246.31640625 C-5.78057852 248.19239015 -23.7817114 248.20846241 -41.8125 248.25 C-42.97592926 248.25526703 -44.13935852 248.26053406 -45.33804321 248.26596069 C-123.004336 248.53745182 -123.004336 248.53745182 -143.12109375 230.05078125 C-148.33890812 224.35566161 -151.66860831 219.11964714 -151.41796875 211.23046875 C-147.70719496 182.55000215 -132.28952406 156.32982662 -109.78515625 138.3671875 C-96.64159741 128.35859359 -81.81778706 121.13070932 -66.1484375 116.05859375 C-63.16804679 115.31634136 -63.16804679 115.31634136 -62 114 C-62.67804688 113.67128906 -63.35609375 113.34257813 -64.0546875 113.00390625 C-71.41040721 109.24454257 -77.16574426 104.8248152 -83 99 C-83.79664063 98.21496094 -84.59328125 97.42992187 -85.4140625 96.62109375 C-97.53512132 83.9933017 -102.66452143 67.77699567 -102.40234375 50.49511719 C-101.72307803 32.59492164 -93.20170159 17.1010269 -80.625 4.6484375 C-57.8113261 -14.7882123 -24.83889168 -16.99503115 0 0 Z " fill="#CCD5DF" transform="translate(820,494)"/>
<path d="M0 0 C13.41427807 10.79157617 24.00183074 26.46639405 26.32470703 43.76318359 C27.90818349 63.42146446 24.34299827 81.42572405 11.25830078 96.83935547 C5.67078376 103.09066368 -0.4421645 107.70752461 -7.64404297 111.95849609 C-10.13233189 113.43992584 -12.40623979 114.97241123 -14.67529297 116.76318359 C-13.62470703 117.21048828 -12.57412109 117.65779297 -11.49169922 118.11865234 C-4.00273697 121.33444839 3.30045083 124.60336434 10.32470703 128.76318359 C9.90318359 129.84857422 9.48166016 130.93396484 9.04736328 132.05224609 C8.49368294 133.49744564 7.94031399 134.94276451 7.38720703 136.38818359 C7.10941406 137.10103516 6.83162109 137.81388672 6.54541016 138.54833984 C0.12090532 155.42234051 2.64048896 173.75584408 9.88720703 189.95068359 C13.5841471 196.90355819 18.76819855 202.27214207 24.32470703 207.76318359 C24.92154297 208.37033203 25.51837891 208.97748047 26.13330078 209.60302734 C31.36287283 214.51960755 37.9792319 217.53796466 44.32470703 220.76318359 C41.55127161 222.61214054 39.12507738 223.55091229 35.98144531 224.56347656 C16.20552003 230.97934727 -0.58735763 241.52928233 -15.67529297 255.76318359 C-16.31337891 256.34841797 -16.95146484 256.93365234 -17.60888672 257.53662109 C-35.11460007 274.14560526 -42.59802574 297.6918178 -46.67529297 320.76318359 C-47.00529297 320.76318359 -47.33529297 320.76318359 -47.67529297 320.76318359 C-47.83384766 319.72162109 -47.99240234 318.68005859 -48.15576172 317.60693359 C-53.08539565 286.69394504 -66.72461761 259.70490693 -92.32373047 240.52832031 C-111.09481155 226.97664261 -132.56187795 218.22161032 -154.67529297 211.76318359 C-152.30023372 209.09124193 -149.86183715 207.72219247 -146.67529297 206.13818359 C-128.48579678 196.41787082 -117.24836003 180.64040919 -110.59716797 161.48583984 C-109.71934688 157.94107924 -109.3935987 154.75604166 -109.18847656 151.13378906 C-108.62625047 141.99711832 -108.62625047 141.99711832 -105.74560547 138.25927734 C-102.84032283 136.07369238 -99.90539778 134.43553276 -96.67529297 132.76318359 C-95.24718475 131.94264478 -93.8229193 131.11539403 -92.40185547 130.28271484 C-69.06108414 116.76318359 -69.06108414 116.76318359 -63.67529297 116.76318359 C-63.67529297 116.10318359 -63.67529297 115.44318359 -63.67529297 114.76318359 C-64.88185547 114.45380859 -64.88185547 114.45380859 -66.11279297 114.13818359 C-80.94653172 108.41288092 -91.99375101 95.46121353 -98.64794922 81.36865234 C-105.67471861 63.54791019 -105.27726535 44.46815192 -98.55029297 26.63818359 C-95.57285189 19.93223521 -91.3689808 14.36378738 -86.67529297 8.76318359 C-86.05912109 8.02068359 -85.44294922 7.27818359 -84.80810547 6.51318359 C-64.0378068 -16.30740207 -24.25614266 -17.90755154 0 0 Z " fill="#1D4068" transform="translate(715.67529296875,387.23681640625)"/>
<path d="M0 0 C11.252356 9.24717837 19.38431266 23.04335576 22.859375 37.1015625 C23.75290088 39.56101504 24.618658 40.5790146 26.6328125 42.23046875 C29.6420589 42.5260482 32.45467151 42.64753717 35.46484375 42.63671875 C36.76889412 42.65297302 36.76889412 42.65297302 38.09928894 42.66955566 C40.88137214 42.70385368 43.66304561 42.71941179 46.4453125 42.73046875 C50.09804877 42.74506827 53.74987443 42.77884253 57.40234375 42.82421875 C58.23691605 42.82119751 59.07148834 42.81817627 59.93135071 42.81506348 C64.90488698 42.87866312 68.31717211 43.49173648 72.6328125 46.23046875 C76.67747149 50.61218265 78.87064823 54.21536286 78.92333984 60.20751953 C78.93609955 61.19599884 78.94885925 62.18447815 78.96200562 63.20291138 C78.96423126 64.26645844 78.96645691 65.33000549 78.96875 66.42578125 C78.9787352 68.0797139 78.9787352 68.0797139 78.98892212 69.76705933 C78.99904763 72.10217624 79.00373917 74.43732209 79.00341797 76.77246094 C79.00777079 80.32145887 79.04403684 83.86919249 79.08203125 87.41796875 C79.08790368 89.69140202 79.09187022 91.96484117 79.09375 94.23828125 C79.10812103 95.28968292 79.12249207 96.34108459 79.13729858 97.42434692 C79.08924082 105.2922132 77.67883084 112.29496186 72.7734375 118.6328125 C72.14953125 119.13941406 71.525625 119.64601563 70.8828125 120.16796875 C70.26921875 120.69261719 69.655625 121.21726562 69.0234375 121.7578125 C62.71712982 125.64258047 57.0084742 126.67391276 49.76565552 126.62487793 C48.90832978 126.63096903 48.05100405 126.63706014 47.16769874 126.64333582 C44.31364765 126.65989805 41.46004602 126.65519973 38.60595703 126.65039062 C36.5520583 126.65773487 34.4981637 126.66632214 32.4442749 126.67605591 C26.87810235 126.69824272 21.31207796 126.70120401 15.74586725 126.6993084 C11.09386062 126.69918857 6.44188523 126.70775772 1.78988731 126.71608591 C-9.1877852 126.73530968 -20.16538167 126.73820747 -31.14306641 126.73144531 C-42.45619459 126.7248046 -53.76899673 126.74767267 -65.08205879 126.78475904 C-74.80630649 126.81547666 -84.53044941 126.82681384 -94.25474465 126.82292223 C-100.05768479 126.82085694 -105.86037116 126.82630035 -111.66326523 126.85081482 C-117.12173728 126.87311334 -122.57967991 126.87117791 -128.0381546 126.8508873 C-130.03676135 126.84748283 -132.03540396 126.85254196 -134.03396225 126.86687088 C-154.52229871 127.00358279 -154.52229871 127.00358279 -162.95176506 119.89400482 C-169.59596045 112.95213619 -169.81783452 103.43602941 -169.765625 94.40625 C-169.76849518 93.30121628 -169.77136536 92.19618256 -169.77432251 91.05766296 C-169.77635353 88.73562097 -169.77089144 86.41356148 -169.75830078 84.09155273 C-169.74218795 80.5430686 -169.7582067 76.99571544 -169.77734375 73.44726562 C-169.77536205 71.18359125 -169.77151989 68.91991757 -169.765625 66.65625 C-169.77169769 65.59988846 -169.77777039 64.54352692 -169.7840271 63.45515442 C-169.72437153 57.19999176 -169.30270229 52.37512963 -164.83203125 47.5859375 C-159.42482714 43.45101671 -156.22016375 43.07667051 -149.52734375 43.01953125 C-147.72460021 42.99146824 -145.92186595 42.96280381 -144.11914062 42.93359375 C-141.27059126 42.89227835 -138.42221622 42.85539978 -135.57348633 42.82910156 C-132.82857301 42.8015503 -130.08445312 42.75568522 -127.33984375 42.70703125 C-126.06005394 42.70215195 -126.06005394 42.70215195 -124.75440979 42.69717407 C-123.96026169 42.6806076 -123.16611359 42.66404114 -122.34790039 42.64697266 C-121.64999893 42.6388858 -120.95209747 42.63079895 -120.23304749 42.62246704 C-117.77094125 42.10520345 -116.9153006 41.18490254 -115.3671875 39.23046875 C-114.37156212 36.73568331 -113.47346765 34.27132619 -112.6171875 31.73046875 C-105.79989153 12.69680088 -92.59394662 -1.17906428 -74.58154297 -10.05322266 C-49.58644659 -21.71296258 -21.51846823 -16.08558764 0 0 Z " fill="#1858A4" transform="translate(478.3671875,182.76953125)"/>
<path d="M0 0 C3.21302894 1.08597873 4.78471621 2.54985542 7.19024658 4.93595886 C8.06755432 5.79743027 8.94486206 6.65890167 9.84875488 7.54647827 C10.79227253 8.49383759 11.73519038 9.44179459 12.67755127 10.39030457 C13.65398994 11.36150584 14.63094709 12.33218609 15.60839844 13.30236816 C17.65249418 15.33606633 19.6889439 17.37706143 21.72052002 19.42326355 C24.32027558 22.04020169 26.93981494 24.63625404 29.5656929 27.22694683 C31.58720311 29.22645911 33.59684737 31.23757466 35.60323334 33.25225258 C36.56425803 34.21409556 37.52912157 35.17211921 38.49790192 36.12615013 C39.85268195 37.46344547 41.18983748 38.81852425 42.52618408 40.17424011 C43.29053772 40.93955551 44.05489136 41.70487091 44.84240723 42.49337769 C46.93875402 45.33923381 47.37609859 47.37666638 47.59942627 50.87858582 C46.5569458 52.81022644 46.5569458 52.81022644 44.85723877 54.53483582 C44.20787354 55.21159363 43.5585083 55.88835144 42.88946533 56.58561707 C42.13375244 57.34229675 41.37803955 58.09897644 40.59942627 58.87858582 C39.753479 59.769328 38.90753174 60.66007019 38.03594971 61.57780457 C35.69475606 64.03593349 33.33197575 66.46664548 30.94659424 68.8815155 C29.95621422 69.88864822 28.9712571 70.9011395 27.99151611 71.91862488 C26.55765339 73.40710642 25.10814722 74.8785846 23.65411377 76.34733582 C22.80317139 77.21809753 21.952229 78.08885925 21.07550049 78.98600769 C18.59942627 80.87858582 18.59942627 80.87858582 15.95928955 81.29460144 C12.24949815 80.64060966 10.83306406 78.81422406 8.59942627 75.87858582 C7.97442627 72.87858582 7.97442627 72.87858582 8.59942627 69.87858582 C10.26609294 68.21191915 11.9327596 66.54525248 13.59942627 64.87858582 C14.07127576 62.38103413 14.07127576 62.38103413 12.59942627 59.87858582 C10.96773104 57.99519292 9.25345049 56.28943758 7.42755127 54.59342957 C5.59942627 52.87858582 5.59942627 52.87858582 3.09942627 49.94108582 C0.68961205 47.63763818 0.68961205 47.63763818 -2.71307373 47.12858582 C-8.02008189 48.20797731 -10.65730908 51.12777426 -14.40057373 54.87858582 C-15.01932373 55.42643738 -15.63807373 55.97428894 -16.27557373 56.53874207 C-18.17452564 58.19566824 -18.17452564 58.19566824 -20.40057373 60.87858582 C-20.31440025 63.85021855 -19.34625604 64.93943255 -17.35931396 67.16520691 C-16.04749146 68.39618103 -16.04749146 68.39618103 -14.70916748 69.65202332 C-13.7649292 70.55952332 -12.82069092 71.46702332 -11.84783936 72.40202332 C-10.34341763 73.83199791 -8.83468763 75.25674842 -7.31781006 76.67350769 C-5.85198455 78.04850876 -4.40528878 79.44381362 -2.95916748 80.83952332 C-2.08574707 81.66242859 -1.21232666 82.48533386 -0.31243896 83.33317566 C1.59942627 85.87858582 1.59942627 85.87858582 2.06256104 88.96549988 C1.5541407 92.16342892 0.99019353 93.2570186 -1.25213623 95.52702332 C-2.1589917 96.44548035 -2.1589917 96.44548035 -3.08416748 97.38249207 C-4.04516357 98.30868347 -4.04516357 98.30868347 -5.02557373 99.25358582 C-5.64303467 99.89424988 -6.26049561 100.53491394 -6.89666748 101.19499207 C-9.84835433 104.10939445 -11.50836945 105.73183469 -15.67791748 106.41764832 C-21.95879506 105.17408862 -25.79707372 99.36125432 -29.74822998 94.71842957 C-31.4352739 92.73906048 -31.4352739 92.73906048 -33.90057373 90.87858582 C-36.86306279 88.50859457 -39.10414729 85.79454091 -41.55291748 82.90983582 C-43.8711906 80.36120574 -46.41207721 78.23217209 -49.11541748 76.10514832 C-49.53951904 75.70038269 -49.96362061 75.29561707 -50.40057373 74.87858582 C-50.40057373 74.21858582 -50.40057373 73.55858582 -50.40057373 72.87858582 C-51.06057373 72.87858582 -51.72057373 72.87858582 -52.40057373 72.87858582 C-54.09197998 71.16374207 -54.09197998 71.16374207 -55.96307373 68.94108582 C-56.89313232 67.84473816 -56.89313232 67.84473816 -57.84197998 66.72624207 C-58.35631592 66.1165155 -58.87065186 65.50678894 -59.40057373 64.87858582 C-59.73057373 64.54858582 -60.06057373 64.21858582 -60.40057373 63.87858582 C-60.84354381 60.19443253 -60.80897019 58.4514298 -58.62541199 55.3886261 C-57.79381058 54.57336456 -56.96220917 53.75810303 -56.10540771 52.9181366 C-55.64848038 52.46193939 -55.19155304 52.00574219 -54.72077942 51.53572083 C-53.20970772 50.03390981 -51.67861921 48.55437878 -50.14666748 47.07389832 C-49.08588413 46.0268641 -48.0265021 44.97840842 -46.96846008 43.92860413 C-44.17769913 41.16640113 -41.36987514 38.42222264 -38.55761719 35.68193054 C-35.16655164 32.37211191 -31.79380036 29.04366045 -28.42051029 25.71574211 C-25.79018778 23.12089539 -23.15673796 20.52958587 -20.51200867 17.94941711 C-15.73774856 13.27822951 -11.10020797 8.57896112 -6.83161926 3.43470764 C-4.68890941 1.10472059 -3.23309222 -0.1635206 0 0 Z " fill="#ABD5FE" transform="translate(226.40057373046875,150.1214141845703)"/>
<path d="M0 0 C5.54006122 1.42258353 10.18689964 6.85444951 13.16015625 11.5546875 C14.06969889 15.70050978 14.01654048 19.76803491 12.1640625 23.6328125 C8.58300488 28.62397496 3.99263228 32.82445644 -0.38671875 37.10546875 C-3.13965895 39.85402529 -5.66779646 42.73770484 -8.1953125 45.69140625 C-10.35361528 48.13679919 -12.66969503 50.39717751 -14.99682617 52.68041992 C-16.77478185 54.48852241 -18.43696493 56.35098201 -20.08984375 58.2734375 C-23.73731529 62.46783719 -27.51614386 66.5211824 -31.33984375 70.5546875 C-32.75012825 72.04805598 -34.1602813 73.5415486 -35.5703125 75.03515625 C-36.27978027 75.78587402 -36.98924805 76.5365918 -37.72021484 77.31005859 C-41.03748264 80.82295425 -44.34606226 84.34395393 -47.65234375 87.8671875 C-48.26891846 88.52283691 -48.88549316 89.17848633 -49.52075195 89.85400391 C-52.40475625 92.92724328 -55.26772986 96.01504716 -58.08203125 99.15234375 C-58.5824292 99.70817139 -59.08282715 100.26399902 -59.59838867 100.83666992 C-60.92771584 102.31862102 -62.24933422 103.80747707 -63.5703125 105.296875 C-67.43375923 109.14037278 -70.20098698 109.77319995 -75.64453125 110.015625 C-82.67458991 108.53956286 -88.04405785 101.65666461 -92.88671875 96.80859375 C-93.73913147 95.96046616 -94.59154419 95.11233856 -95.4697876 94.23851013 C-97.2641399 92.44988457 -99.05589918 90.65865437 -100.84521484 88.86499023 C-103.58563324 86.12140288 -106.33912972 83.39142861 -109.09375 80.66210938 C-110.83804983 78.92008176 -112.5815666 77.17726963 -114.32421875 75.43359375 C-115.14815125 74.618871 -115.97208374 73.80414825 -116.82098389 72.96473694 C-117.96292206 71.81345558 -117.96292206 71.81345558 -119.12792969 70.63891602 C-119.79822205 69.96925308 -120.4685144 69.29959015 -121.15911865 68.6096344 C-123.70922476 65.49173448 -124.70844368 62.58398806 -125.21484375 58.6171875 C-124.57501714 53.39193686 -121.67513492 50.46953021 -118.21484375 46.6796875 C-113.78106951 43.88805186 -109.96019764 43.42290196 -104.83984375 44.5546875 C-99.7770182 47.39179327 -95.92621789 51.19615809 -91.90234375 55.3046875 C-91.28552734 55.92359863 -90.66871094 56.54250977 -90.03320312 57.18017578 C-86.23665718 61.01990995 -82.67195375 64.9417654 -79.46484375 69.296875 C-77.79529675 70.78410846 -77.79529675 70.78410846 -75.00390625 71.10546875 C-70.70533371 70.35719872 -68.89035335 68.07199846 -66.21484375 64.8671875 C-65.16059781 63.66497722 -64.10589764 62.46316515 -63.05078125 61.26171875 C-62.51807617 60.64377441 -61.98537109 60.02583008 -61.43652344 59.38916016 C-58.9673141 56.5522123 -56.40285477 53.80666272 -53.83984375 51.0546875 C-52.83931579 49.97184175 -51.83931714 48.8885067 -50.83984375 47.8046875 C-48.83984375 45.63802083 -46.83984375 43.47135417 -44.83984375 41.3046875 C-44.34500488 40.76859863 -43.85016602 40.23250977 -43.34033203 39.68017578 C-42.33875849 38.59516494 -41.33713075 37.51020412 -40.33544922 36.42529297 C-37.85908103 33.74302993 -35.38361311 31.05994816 -32.91015625 28.375 C-30.43310152 25.68658967 -27.95232451 23.00165111 -25.46972656 20.31835938 C-24.31680291 19.0707979 -23.1652432 17.8219753 -22.01464844 16.57226562 C-20.12618221 14.52182001 -18.23337642 12.47545407 -16.33984375 10.4296875 C-15.75219238 9.7898291 -15.16454102 9.1499707 -14.55908203 8.49072266 C-6.47699627 -0.21791763 -6.47699627 -0.21791763 0 0 Z " fill="#1C3F68" transform="translate(399.83984375,366.4453125)"/>
<path d="M0 0 C1.24944901 -0.00686325 2.49889801 -0.0137265 3.78620911 -0.02079773 C7.20162173 -0.03593457 10.61648727 -0.03756789 14.03189278 -0.03185534 C16.88728916 -0.02875884 19.74263642 -0.03486094 22.5980258 -0.04089409 C29.33541186 -0.05492552 36.07267109 -0.05338912 42.81005859 -0.04199219 C49.75276112 -0.03050724 56.69507751 -0.04459578 63.63772917 -0.07138866 C69.60734887 -0.09356093 75.5768475 -0.10017978 81.54650545 -0.09431225 C85.10809869 -0.09094568 88.66944433 -0.09333765 92.23100281 -0.11056328 C96.20233246 -0.12893394 100.17318865 -0.1148295 104.14453125 -0.09765625 C105.31977859 -0.10732422 106.49502594 -0.11699219 107.70588684 -0.12695312 C113.95481399 -0.07031475 117.85814595 0.13574942 122.57226562 4.40405273 C126.63143512 9.63892248 126.33753062 15.04646658 125.57226562 21.40405273 C124.41416022 24.84867393 122.91011347 27.53941586 119.77280331 29.56702614 C117.09699195 30.58483433 114.97702974 30.66151482 112.11366272 30.67147827 C110.45025093 30.68427322 110.45025093 30.68427322 108.75323486 30.69732666 C107.54117371 30.69642029 106.32911255 30.69551392 105.08032227 30.69458008 C103.80029831 30.7012973 102.52027435 30.70801453 101.20146179 30.7149353 C97.69319122 30.73259198 94.18501822 30.73729049 90.67670751 30.73856688 C88.48426948 30.73998904 86.29185623 30.74425982 84.09942436 30.74956131 C76.44916077 30.76805931 68.79896685 30.77623207 61.14868164 30.7746582 C54.01970404 30.77345632 46.89102897 30.79456821 39.76212794 30.82614553 C33.63886309 30.85230104 27.51569712 30.86302584 21.39237684 30.86174738 C17.73631523 30.8612376 14.0805226 30.86692955 10.42451668 30.88810349 C6.34733527 30.91107268 2.27083168 30.90196955 -1.80639648 30.88989258 C-3.01643341 30.90113159 -4.22647034 30.91237061 -5.47317505 30.9239502 C-13.66103368 30.86216735 -13.66103368 30.86216735 -17.63575745 28.48721313 C-21.3392667 24.18191004 -21.72198352 21.16690258 -21.74023438 15.46655273 C-21.75699219 14.2612793 -21.77375 13.05600586 -21.79101562 11.81420898 C-21.39117063 8.06082532 -20.82270261 6.30322481 -18.42773438 3.40405273 C-12.68581389 -0.56046575 -6.70377682 -0.02567804 0 0 Z " fill="#1E4067" transform="translate(297.427734375,536.595947265625)"/>
<path d="M0 0 C3.54243452 1.36591169 6.92627929 2.90931484 10.3125 4.625 C11.63701172 5.29402344 11.63701172 5.29402344 12.98828125 5.9765625 C13.65214844 6.31429687 14.31601562 6.65203125 15 7 C11.99559979 9.00293347 10.29006055 9.49271626 6.8125 10.125 C5.91144531 10.29257812 5.01039063 10.46015625 4.08203125 10.6328125 C3.39496094 10.75398437 2.70789063 10.87515625 2 11 C4.5654594 8.4345406 6.47686668 8.45953913 10 8 C10 7.34 10 6.68 10 6 C9.0925 5.7525 8.185 5.505 7.25 5.25 C3.89648511 3.96018658 2.32291764 2.68028958 0 0 Z " fill="#112F5A" transform="translate(745,601)"/>
<path d="M0 0 C0.33 0.99 0.66 1.98 1 3 C1.66 3.33 2.32 3.66 3 4 C3.93493027 9.01462597 4.13112344 12.97278473 3 18 C2.67 18 2.34 18 2 18 C1.66191314 15.93827387 1.32972639 13.8755797 1 11.8125 C0.814375 10.66394531 0.62875 9.51539063 0.4375 8.33203125 C0.06510523 5.49584607 -0.08596021 2.85280436 0 0 Z " fill="#132F52" transform="translate(666,690)"/>
<path d="M0 0 C4.14298667 0.59834725 7.18194377 2.00664285 10.8125 4.0625 C11.78832031 4.61035156 12.76414062 5.15820312 13.76953125 5.72265625 C14.50558594 6.14417969 15.24164062 6.56570313 16 7 C15.34 8.32 14.68 9.64 14 11 C13.54625 10.278125 13.0925 9.55625 12.625 8.8125 C9.00936019 4.9386002 4.78637334 3.14656056 0 1 C0 0.67 0 0.34 0 0 Z " fill="#0F2E57" transform="translate(710,509)"/>
<path d="M0 0 C0.33 0.66 0.66 1.32 1 2 C-0.98 2.66 -2.96 3.32 -5 4 C-4.67 5.32 -4.34 6.64 -4 8 C-6.31 7.67 -8.62 7.34 -11 7 C-8.81482901 4.59424393 -6.74080329 3.20464419 -3.8125 1.8125 C-2.73935547 1.29623047 -2.73935547 1.29623047 -1.64453125 0.76953125 C-1.10183594 0.51558594 -0.55914063 0.26164063 0 0 Z " fill="#1C375B" transform="translate(572,592)"/>
<path d="M0 0 C3 4 3 4 2.85546875 7.234375 C2.63503906 8.39453125 2.41460938 9.5546875 2.1875 10.75 C1.97480469 11.92046875 1.76210938 13.0909375 1.54296875 14.296875 C1.36378906 15.18890625 1.18460938 16.0809375 1 17 C0.67 17 0.34 17 0 17 C0 11.39 0 5.78 0 0 Z " fill="#67B1F9" transform="translate(669,712)"/>
<path d="M0 0 C0.66 0.33 1.32 0.66 2 1 C-0.77280706 4.08089673 -3.06326356 5.68775452 -7 7 C-4.78071806 4.09197539 -3.07030857 2.04687238 0 0 Z " fill="#0D70F0" transform="translate(445,627)"/>
<path d="M0 0 C1.10844919 3.32534757 0.84454356 5.62182575 0 9 C-0.66 9 -1.32 9 -2 9 C-1.125 1.125 -1.125 1.125 0 0 Z " fill="#1073EE" transform="translate(461,498)"/>
</svg>
