<?xml version="1.0" encoding="UTF-8"?>
<svg version="1.1" xmlns="http://www.w3.org/2000/svg" width="24" height="24">
<path d="M0 0 C7.92 0 15.84 0 24 0 C24 7.92 24 15.84 24 24 C16.08 24 8.16 24 0 24 C0 16.08 0 8.16 0 0 Z " fill="#72B8FF" transform="translate(0,0)"/>
<path d="M0 0 C7.92 0 15.84 0 24 0 C24 7.92 24 15.84 24 24 C16.08 24 8.16 24 0 24 C0 16.08 0 8.16 0 0 Z M2 3 C1.9016279 4.33043625 1.86921408 5.66593344 1.8671875 7 C1.86589844 7.804375 1.86460938 8.60875 1.86328125 9.4375 C1.86714844 10.283125 1.87101563 11.12875 1.875 12 C1.87113281 12.845625 1.86726562 13.69125 1.86328125 14.5625 C1.86457031 15.366875 1.86585937 16.17125 1.8671875 17 C1.86831543 17.7425 1.86944336 18.485 1.87060547 19.25 C1.81057784 21.02825811 1.81057784 21.02825811 3 22 C4.33043625 22.0983721 5.66593344 22.13078592 7 22.1328125 C7.804375 22.13410156 8.60875 22.13539062 9.4375 22.13671875 C10.7059375 22.13091797 10.7059375 22.13091797 12 22.125 C12.845625 22.12886719 13.69125 22.13273437 14.5625 22.13671875 C15.366875 22.13542969 16.17125 22.13414063 17 22.1328125 C18.11375 22.13112061 18.11375 22.13112061 19.25 22.12939453 C21.02825811 22.18942216 21.02825811 22.18942216 22 21 C22.0983721 19.66956375 22.13078592 18.33406656 22.1328125 17 C22.13410156 16.195625 22.13539062 15.39125 22.13671875 14.5625 C22.13091797 13.2940625 22.13091797 13.2940625 22.125 12 C22.12886719 11.154375 22.13273437 10.30875 22.13671875 9.4375 C22.13478516 8.2309375 22.13478516 8.2309375 22.1328125 7 C22.13168457 6.2575 22.13055664 5.515 22.12939453 4.75 C22.18942216 2.97174189 22.18942216 2.97174189 21 2 C19.66956375 1.9016279 18.33406656 1.86921408 17 1.8671875 C16.195625 1.86589844 15.39125 1.86460938 14.5625 1.86328125 C13.716875 1.86714844 12.87125 1.87101563 12 1.875 C11.154375 1.87113281 10.30875 1.86726562 9.4375 1.86328125 C8.633125 1.86457031 7.82875 1.86585937 7 1.8671875 C5.88625 1.86887939 5.88625 1.86887939 4.75 1.87060547 C2.97174189 1.81057784 2.97174189 1.81057784 2 3 Z " fill="#FAFCFE" transform="translate(0,0)"/>
<path d="M0 0 C4.95 0 9.9 0 15 0 C15 3.96 15 7.92 15 12 C14.01 11.01 13.02 10.02 12 9 C11.34 10.98 10.68 12.96 10 15 C7.69 15 5.38 15 3 15 C3.33 13.68 3.66 12.36 4 11 C3.01 11 2.02 11 1 11 C1 10.34 1 9.68 1 9 C4.465 8.505 4.465 8.505 8 8 C8.33 6.68 8.66 5.36 9 4 C6.36 4 3.72 4 1 4 C0.67 2.68 0.34 1.36 0 0 Z " fill="#59A1EB" transform="translate(6,3)"/>
<path d="M0 0 C3.3 0 6.6 0 10 0 C10 3 10 3 9 5 C6.67843403 5.40729228 4.3431213 5.74438677 2 6 C2 6.66 2 7.32 2 8 C3.32 7.67 4.64 7.34 6 7 C5.34 8.65 4.68 10.3 4 12 C5.98 12 7.96 12 10 12 C9.67 12.66 9.34 13.32 9 14 C6.03 14 3.06 14 0 14 C0 9.38 0 4.76 0 0 Z " fill="#EDF5FD" transform="translate(5,6)"/>
<path d="M0 0 C0.99 0 1.98 0 3 0 C2.67 2.97 2.34 5.94 2 9 C-0.31 9 -2.62 9 -5 9 C-4.67 7.68 -4.34 6.36 -4 5 C-4.99 5 -5.98 5 -7 5 C-7 4.34 -7 3.68 -7 3 C-3.535 2.505 -3.535 2.505 0 2 C0 1.34 0 0.68 0 0 Z " fill="#1B62B2" transform="translate(14,9)"/>
<path d="M0 0 C0.33 0 0.66 0 1 0 C1 5.94 1 11.88 1 18 C0.67 17.01 0.34 16.02 0 15 C-1.65 15 -3.3 15 -5 15 C-4.67 13.02 -4.34 11.04 -4 9 C-3.01 9 -2.02 9 -1 9 C-1.020625 7.88625 -1.04125 6.7725 -1.0625 5.625 C-1 2 -1 2 0 0 Z " fill="#7ABBFC" transform="translate(21,3)"/>
<path d="M0 0 C0.5534764 2.07553648 1 3.84365964 1 6 C-1.64 5.67 -4.28 5.34 -7 5 C-7 4.34 -7 3.68 -7 3 C-3.535 2.505 -3.535 2.505 0 2 C0 1.34 0 0.68 0 0 Z " fill="#518ED3" transform="translate(14,9)"/>
<path d="M0 0 C2.64 0.33 5.28 0.66 8 1 C7.01 1.33 6.02 1.66 5 2 C4.67 2.99 4.34 3.98 4 5 C2.68 5 1.36 5 0 5 C0 3.35 0 1.7 0 0 Z " fill="#CDD6E2" transform="translate(5,6)"/>
<path d="M0 0 C0.66 0.33 1.32 0.66 2 1 C2.625 3.5625 2.625 3.5625 3 6 C1.35 6 -0.3 6 -2 6 C-1.34 4.02 -0.68 2.04 0 0 Z " fill="#CED5DE" transform="translate(18,11)"/>
</svg>
